<?xml version="1.0" encoding="UTF-8"?>
<svg version="1.1" xmlns="http://www.w3.org/2000/svg" width="2268" height="464">
<path d="M0 0 C25.08 0 50.16 0 76 0 C76.33 48.51 76.66 97.02 77 147 C78.32 142.05 79.64 137.1 81 132 C90.20297368 107.37582717 106.27118625 90.27611244 130 79 C163.2429686 64.86656354 206.76966271 64.70535032 240.43359375 77.63671875 C252.96325718 82.76023748 263.23410229 89.65359962 273 99 C273.62648438 99.56332031 274.25296875 100.12664062 274.8984375 100.70703125 C285.10753524 110.20010629 291.22412351 122.78443228 295 136 C295.33 115.54 295.66 95.08 296 74 C320.75 74 345.5 74 371 74 C371.04898437 82.69085938 371.09796875 91.38171875 371.1484375 100.3359375 C371.1883375 106.55190978 371.22945635 112.76786466 371.27233124 118.98381615 C371.32766641 127.0297153 371.38015504 135.07559952 371.421875 143.12158203 C371.45492374 149.49347929 371.49482502 155.86529146 371.54279006 162.23709452 C371.56792772 165.60765782 371.58974573 168.9781656 371.60334396 172.34879684 C371.62028963 176.1211634 371.64934531 179.89326077 371.68115234 183.66552734 C371.68331253 184.77036469 371.68547272 185.87520203 371.68769836 187.01351929 C371.78393278 195.98116023 371.96223919 206.79973077 378.57421875 213.625 C385.31064601 219.70385844 391.23740206 220.56111508 400.203125 220.30078125 C408.02405788 219.68122175 413.05069597 217.40609993 418.4375 211.6875 C423.85705849 205.03324371 426.09580495 198.39140407 426.15821838 189.80509949 C426.1680072 188.78011353 426.17779602 187.75512756 426.18788147 186.69908142 C426.19363693 185.58561844 426.1993924 184.47215546 426.20532227 183.32495117 C426.21522186 182.144039 426.22512146 180.96312683 426.23532104 179.74642944 C426.26145385 176.5175023 426.28333848 173.28858012 426.30332303 170.05961013 C426.32523788 166.68166597 426.35259959 163.303766 426.37937927 159.92585754 C426.42923198 153.53346618 426.47419824 147.14105018 426.51740164 140.74861079 C426.57168913 132.75490019 426.63251213 124.76124103 426.69335938 116.76757812 C426.80184493 102.51175832 426.90045656 88.25589128 427 74 C451.75 74 476.5 74 502 74 C502.33 94.13 502.66 114.26 503 135 C504.65 129.39 506.3 123.78 508 118 C509.18667054 115.05261911 510.28734225 112.3949685 511.75 109.625 C512.08652588 108.97273438 512.42305176 108.32046875 512.76977539 107.6484375 C522.56919803 89.34236827 538.0080218 78.22887941 557.48046875 72.2578125 C579.39870816 65.93497795 602.47252624 67.78978453 622.68359375 78.41015625 C628.60253434 81.788547 632.65352006 85.32183005 638 90 C638.33 60.3 638.66 30.6 639 0 C664.08 0 689.16 0 715 0 C715 68.31 715 136.62 715 207 C736.45 207 757.9 207 780 207 C781.51122032 208.51122032 781.48238785 210.16984442 781.875 212.25 C783.24872764 218.57716893 785.51923286 222.38502593 791 226 C805.3296453 232.75745815 820.97424624 232.50772613 836 228 C838.99509017 226.57550589 839.90684389 225.70879026 842 223 C843.15230564 219.20416967 843.36970244 217.05981365 842.0625 213.3125 C837.36124377 208.04139453 830.17874957 206.21591692 823.5 204.625 C822.66251221 204.41931396 821.82502441 204.21362793 820.9621582 204.00170898 C812.76176167 202.05497772 804.47702736 200.56932144 796.1875 199.0625 C738.42438478 188.55095439 738.42438478 188.55095439 722.3125 165.375 C714.36989362 151.46228882 713.73303243 133.91952418 717.0625 118.4375 C721.9154108 103.0025476 730.10530154 91.64065824 744.48583984 83.76513672 C779.5081675 65.50035157 825.0133379 64.06656708 862.51855469 75.19335938 C876.71860993 79.80935529 888.41591825 86.41591825 899 97 C899.33 89.41 899.66 81.82 900 74 C910.23 74 920.46 74 931 74 C931.33 71.69 931.66 69.38 932 67 C932.4268281 65.14108852 932.88742401 63.28958027 933.3828125 61.44775391 C933.79829346 59.89176987 933.79829346 59.89176987 934.22216797 58.30435181 C934.52010254 57.20618134 934.81803711 56.10801086 935.125 54.9765625 C935.43195801 53.83464447 935.73891602 52.69272644 936.05517578 51.51620483 C936.7020986 49.11361587 937.35106542 46.71157646 938.00195312 44.31005859 C939.00179469 40.61837352 939.99352432 36.9245759 940.984375 33.23046875 C941.61410231 30.89570354 942.24429424 28.56106359 942.875 26.2265625 C943.17293457 25.11624664 943.47086914 24.00593079 943.77783203 22.86196899 C944.19331299 21.3343544 944.19331299 21.3343544 944.6171875 19.77587891 C944.86065918 18.87543854 945.10413086 17.97499817 945.35498047 17.04727173 C946 15 946 15 947 14 C948.7492872 13.90634994 950.50236254 13.88255562 952.25415039 13.88647461 C953.39098267 13.88659546 954.52781494 13.88671631 955.69909668 13.88684082 C957.50513367 13.89451477 957.50513367 13.89451477 959.34765625 13.90234375 C960.99743469 13.90385437 960.99743469 13.90385437 962.68054199 13.90539551 C966.80787186 13.91064638 970.93518693 13.92460749 975.0625 13.9375 C988.8915625 13.9684375 988.8915625 13.9684375 1003 14 C1003 33.8 1003 53.6 1003 74 C1036 74 1069 74 1103 74 C1104.32 81.59 1105.64 89.18 1107 97 C1107.33 97.99 1107.66 98.98 1108 100 C1108.60134766 98.96552734 1108.60134766 98.96552734 1109.21484375 97.91015625 C1117.43265125 84.32561731 1127.65851111 75.32135664 1143 70.5625 C1155.85943116 67.49632525 1170.5104245 67.33754725 1183 72 C1183.33 72.33 1183.66 72.66 1184 73 C1185.69519835 73.10837866 1187.39489979 73.14686179 1189.09352112 73.15821838 C1190.19714996 73.1680072 1191.30077881 73.17779602 1192.43785095 73.18788147 C1194.26987816 73.19651466 1194.26987816 73.19651466 1196.13891602 73.20532227 C1197.41677979 73.21522186 1198.69464355 73.22512146 1200.01123047 73.23532104 C1203.52550176 73.2624333 1207.03978658 73.28340851 1210.55410504 73.30332303 C1214.22302054 73.32514374 1217.89189407 73.35255152 1221.56077576 73.37937927 C1228.51287391 73.42935927 1235.46499529 73.47427833 1242.41713899 73.51740164 C1250.3299776 73.56672876 1258.24277412 73.62166361 1266.15557206 73.67708123 C1282.43700927 73.79098271 1298.71848502 73.89780387 1315 74 C1318.21753388 84.88649317 1321.43481866 95.77305993 1324.65181541 106.65971184 C1326.1468316 111.71897581 1327.64192255 116.77821766 1329.13720703 121.83740234 C1336.44210112 146.55319619 1343.73670475 171.27194629 1351 196 C1351.66 196 1352.32 196 1353 196 C1353.27402649 195.06152222 1353.54805298 194.12304443 1353.8303833 193.15612793 C1356.47402332 184.10299493 1359.11926298 175.05033052 1361.76588821 165.99806976 C1363.1249434 161.34951619 1364.48352329 156.70082507 1365.84082031 152.05175781 C1373.44727119 125.9995622 1381.17548845 99.98771704 1389 74 C1413.75 74 1438.5 74 1464 74 C1458.0463015 90.07498594 1452.07961938 106.12417961 1445.90066528 122.11074829 C1443.7342306 127.71673114 1441.57444792 133.32527752 1439.4140625 138.93359375 C1438.74404961 140.67246101 1438.74404961 140.67246101 1438.0605011 142.44645691 C1433.20288482 155.0589475 1428.38039218 167.6847924 1423.5625 180.3125 C1422.9201239 181.9957991 1422.9201239 181.9957991 1422.26477051 183.71310425 C1418.69618058 193.06442966 1415.12928077 202.41639945 1411.56286621 211.76855469 C1408.65310687 219.39873215 1405.74272182 227.02867033 1402.83151245 234.65829468 C1401.47044681 238.22613462 1400.11032414 241.79433306 1398.75024414 245.36254883 C1397.91557493 247.55031113 1397.08086053 249.73805618 1396.24609375 251.92578125 C1395.87410858 252.90248779 1395.50212341 253.87919434 1395.11886597 254.88549805 C1394.76567291 255.81056152 1394.41247986 256.735625 1394.04858398 257.6887207 C1393.74774399 258.47769241 1393.44690399 259.26666412 1393.13694763 260.07954407 C1391.45554707 264.39852597 1389.72129512 268.6967622 1388 273 C1361.6 273 1335.2 273 1308 273 C1304.98875 264.95625 1301.9775 256.9125 1298.875 248.625 C1290.38811992 225.97702032 1281.84560413 203.35094259 1273.25341797 180.74267578 C1264.80421233 158.50680353 1256.40643954 136.25233996 1248 114 C1247.67 166.47 1247.34 218.94 1247 273 C1222.25 273 1197.5 273 1172 273 C1172 228.12 1172 183.24 1172 137 C1146.53894754 137.17826754 1146.53894754 137.17826754 1126.25 149.625 C1115.16962793 163.10317469 1116.67728562 182.77569784 1116.5859375 199.171875 C1116.56719876 201.30707525 1116.5476234 203.44226831 1116.5272522 205.57745361 C1116.47621066 211.16023491 1116.43643622 216.74304015 1116.39910889 222.32592773 C1116.35889261 228.0376565 1116.3078812 233.74928811 1116.2578125 239.4609375 C1116.16138503 250.64055647 1116.07687539 261.82023066 1116 273 C1115.06056046 272.99333817 1114.12112091 272.98667633 1113.1532135 272.97981262 C1104.22584759 272.9185459 1095.29852528 272.87381139 1086.37099552 272.84456348 C1081.7831287 272.82902053 1077.19543389 272.80799484 1072.60766602 272.77368164 C1068.16613046 272.7406765 1063.72475855 272.72306194 1059.28310966 272.71536827 C1057.60294461 272.70989753 1055.92278677 272.69921905 1054.24269295 272.68280983 C1042.80418564 272.5757089 1032.2035421 273.72796356 1021 276 C1012.86424741 277.2896415 1004.65703031 277.24302076 996.4375 277.25 C995.36693863 277.25101212 995.36693863 277.25101212 994.27474976 277.25204468 C974.30626746 277.22203038 954.34015103 274.70627777 939.19140625 260.27734375 C930.11237307 250.33795331 927.51773592 237.67702707 927.65942383 224.56176758 C927.65898575 223.47751495 927.65854767 222.39326233 927.65809631 221.27615356 C927.66016772 217.73208908 927.68342081 214.18851196 927.70703125 210.64453125 C927.71263306 208.17160806 927.71690039 205.69868151 927.71989441 203.22575378 C927.73129703 196.74684302 927.76072468 190.26813703 927.79400635 183.78930664 C927.82480626 177.16620656 927.8384209 170.54307308 927.85351562 163.91992188 C927.88559885 150.94652508 927.9367395 137.97327963 928 125 C922.39 125 916.78 125 911 125 C911 127.97 911 130.94 911 134 C887.9 134 864.8 134 841 134 C839.68 130.37 838.36 126.74 837 123 C829.76926543 116.31498125 822.12531419 115.65357031 812.625 115.6875 C811.73039062 115.67138672 810.83578125 115.65527344 809.9140625 115.63867188 C802.77342915 115.63348246 795.89872656 116.38407603 790.4375 121.3125 C788.66929105 124.61828196 788.30735728 126.30590547 789 130 C794.25618027 137.2908307 803.84079607 138.36616956 812.1875 139.875 C813.07187744 140.04080566 813.95625488 140.20661133 814.86743164 140.37744141 C820.32170426 141.38348369 825.78693121 142.29346358 831.265625 143.15625 C883.25677487 151.36748451 883.25677487 151.36748451 902 169 C902.65484375 169.61359375 903.3096875 170.2271875 903.984375 170.859375 C914.04525458 181.26421628 916.36401449 195.54848288 916.30273438 209.46826172 C915.90909782 226.00464198 910.67167843 240.80552814 899.265625 252.828125 C874.94462975 275.90188973 837.250446 277.97597284 805.65625 277.3203125 C778.44772894 276.59392205 751.36199437 269.42483847 730 252 C727.525 250.02 727.525 250.02 725 248 C722.03 243.71 719.06 239.42 716 235 C715.67 247.54 715.34 260.08 715 273 C694.54 273 674.08 273 653 273 C651.02 264.75 649.04 256.5 647 248 C646.34 248 645.68 248 645 248 C643.43135918 249.5507907 643.43135918 249.5507907 641.8125 251.5625 C629.44856292 265.98286194 615.05134983 274.28758718 596 277 C591.9329304 277.28725241 587.88870943 277.33439829 583.8125 277.3125 C582.71115723 277.30686035 581.60981445 277.3012207 580.47509766 277.29541016 C558.65684255 276.971583 540.80081692 270.30458441 524.8125 255.3125 C512.68568635 242.76221032 507.42630915 227.59865933 503 211 C502.67 231.46 502.34 251.92 502 273 C481.54 273 461.08 273 440 273 C438.35 263.76 436.7 254.52 435 245 C433.35 246.98 431.7 248.96 430 251 C411.01944666 269.8233645 387.76942552 277.25824674 361.55786133 277.2487793 C344.88503411 277.08012178 329.70089674 273.29498134 317 262 C315.98486328 261.17628906 315.98486328 261.17628906 314.94921875 260.3359375 C301.30208603 248.30526128 297.42289861 228.11969151 295 211 C294.6596875 211.93199219 294.319375 212.86398437 293.96875 213.82421875 C284.8212951 238.18418394 268.94345941 256.05891113 245.14257812 267.08886719 C237.99504316 270.12836132 230.53369213 272.16820304 223 274 C222.2692627 274.17934082 221.53852539 274.35868164 220.78564453 274.54345703 C198.96593576 279.59111307 172.75353504 278.98232453 151 274 C150.26974609 273.83371094 149.53949219 273.66742188 148.78710938 273.49609375 C124.52325072 267.70366065 102.38648061 253.81729271 89.02441406 232.42553711 C82.75043821 221.8175266 79.78783588 211.08062213 77 199 C76.67 223.42 76.34 247.84 76 273 C50.92 273 25.84 273 0 273 C0 182.91 0 92.82 0 0 Z M159 132 C152.1365576 140.53292839 150.85127764 150.8413469 150.76171875 161.4375 C150.753647 162.35402344 150.74557526 163.27054688 150.73725891 164.21484375 C150.72345204 166.15476613 150.71271475 168.09471246 150.70483398 170.03466797 C150.69336129 171.99730669 150.67298499 173.95991537 150.64331055 175.92236328 C150.42027486 190.69255903 150.4948878 205.34073871 161 217 C168.15930357 223.59409539 177.59579835 225.9824212 187.1875 226.3125 C197.21790387 225.49033575 206.04761419 223.19876188 213.875 216.5625 C222.01771331 206.74334572 224.13278442 196.12847294 224.203125 183.55859375 C224.20882507 182.75446548 224.21452515 181.95033722 224.22039795 181.12184143 C224.22981059 179.42328185 224.236367 177.72470431 224.24023438 176.02612305 C224.24987909 173.46955054 224.28091231 170.9138041 224.3125 168.35742188 C224.40653874 153.99649996 223.41464073 140.32326391 213.3359375 129.15625 C204.7261083 121.13613512 193.76648492 120.53655916 182.56640625 120.7265625 C172.80117064 121.13152608 165.59409209 124.87463035 159 132 Z M582.8125 135.3125 C574.09534357 146.14635499 574.81791961 160.31545987 574.75 173.5625 C574.74073486 174.6855957 574.73146973 175.80869141 574.72192383 176.96582031 C574.77080035 190.11839774 575.61790436 204.33850987 585.0703125 214.42578125 C592.72666669 220.6717544 601.68083356 221.91995502 611.22265625 221.4140625 C619.1182734 220.54856569 625.12700424 217.98541175 630.47265625 212.0234375 C641.91559415 196.86373972 641.62475241 175.44761174 639.53125 157.35546875 C638.00217487 146.80240383 634.5004564 136.81450524 625.79296875 130.14453125 C612.11582218 121.4138037 593.82762412 123.27396582 582.8125 135.3125 Z M1003 125 C1002.94177534 139.35448438 1002.94177534 139.35448438 1002.90234375 153.70898438 C1002.89041368 159.5683151 1002.87633878 165.42758298 1002.84912109 171.28686523 C1002.82730292 176.01364389 1002.8154125 180.7403551 1002.81024551 185.46718025 C1002.80656582 187.26558556 1002.79938049 189.06398741 1002.78853989 190.86236382 C1002.7739055 193.39196467 1002.77202701 195.92129099 1002.77294922 198.45092773 C1002.76575867 199.18533081 1002.75856812 199.91973389 1002.75115967 200.6763916 C1002.78165763 208.4672798 1003.79035208 215.92207743 1009 222 C1019.01670744 228.18052161 1028.95650409 226 1041 226 C1041 192.67 1041 159.34 1041 125 C1028.46 125 1015.92 125 1003 125 Z " fill="#ffffff" transform="translate(445,79)"/>
<path d="M0 0 C0.7734375 0.67804688 1.546875 1.35609375 2.34375 2.0546875 C18.78730202 17.42828236 25.29113516 39.32908125 28 61 C28 70.9 28 80.8 28 91 C-20.84 91 -69.68 91 -120 91 C-117.78576662 111.54633372 -117.78576662 111.54633372 -106 127 C-96.34894518 133.94718056 -82.76858799 134.01589228 -71.4453125 132.53515625 C-63.06432888 131.0121603 -55.80747178 128.89532086 -50.4140625 121.9609375 C-46.91335333 116.23434389 -46.42198407 112.10992037 -45 105 C-20.91 105 3.18 105 28 105 C28 124.63339902 23.61241682 140.21008013 9.703125 154.3203125 C8.81109375 155.20460938 7.9190625 156.08890625 7 157 C6.37609375 157.65742188 5.7521875 158.31484375 5.109375 158.9921875 C-17.94190317 181.52429274 -55.44289756 182.66102542 -85.50227356 182.32858276 C-96.50680734 182.15028083 -107.22426713 181.33751288 -118 179 C-118.67385742 178.86078125 -119.34771484 178.7215625 -120.04199219 178.578125 C-142.49777876 173.79700139 -166.09538948 161.49617704 -179.1640625 142.05859375 C-196.39392928 113.35436887 -200.58263342 79.61839722 -193 47 C-192.7215625 45.7728125 -192.443125 44.545625 -192.15625 43.28125 C-186.63247011 21.75755596 -173.1839259 2.46865135 -154 -9 C-138.46662165 -17.84636346 -122.61845294 -22.45768035 -105 -25 C-104.08347656 -25.13277344 -103.16695312 -25.26554688 -102.22265625 -25.40234375 C-67.17207622 -29.44451175 -27.22940621 -23.95834118 0 0 Z M-111.75390625 33.7109375 C-116.45774539 39.29895692 -120 47.62442501 -120 55 C-96.24 55 -72.48 55 -48 55 C-48.97780967 44.24409361 -49.88122738 37.55202051 -57.6875 30.125 C-73.21882104 18.00369225 -97.73163425 20.03219555 -111.75390625 33.7109375 Z " fill="#ffffff" transform="translate(2079,174)"/>
<path d="M0 0 C0.80695313 0.69609375 1.61390625 1.3921875 2.4453125 2.109375 C15.50382985 14.23830298 22.5007904 31.38988128 24 49 C24.01778026 50.73063015 24.02224569 52.46142721 24.01635742 54.19213867 C24.01399582 55.09252365 24.01163422 55.99290863 24.00920105 56.920578 C24.00464653 57.94989189 24.00464653 57.94989189 24 59 C14.49925675 59.02312484 4.99852312 59.0409158 -4.50224209 59.05181217 C-8.91337004 59.05704069 -13.3244788 59.06413777 -17.7355957 59.07543945 C-21.98901115 59.08626944 -26.24240809 59.09227707 -30.49583626 59.09487724 C-32.12221633 59.09673129 -33.74859534 59.10035152 -35.37496758 59.10573006 C-37.64510193 59.11294198 -39.91515885 59.11399088 -42.18530273 59.11352539 C-44.12722755 59.11685631 -44.12722755 59.11685631 -46.10838318 59.12025452 C-49 59 -49 59 -50 58 C-50.2733902 56.0030629 -50.51826407 54.00219841 -50.75 52 C-51.97384296 43.90312593 -54.27703605 37.92172678 -60.6875 32.625 C-71.58291359 25.40152138 -85.89754643 25.27207661 -98.45703125 27.65625 C-106.73769585 30.34312299 -112.77168821 35.19321863 -116.875 42.875 C-120.54282417 50.44149043 -121.30980697 58.38350491 -121.30078125 66.6796875 C-121.30720894 68.01980392 -121.30720894 68.01980392 -121.31376648 69.38699341 C-121.31947191 71.2643347 -121.32003824 73.14169808 -121.31567383 75.01904297 C-121.31251584 77.86074271 -121.33601401 80.70139735 -121.36132812 83.54296875 C-121.40839322 97.03126352 -120.55909124 109.70467872 -111.875 120.6875 C-101.16679772 129.30061923 -89.20817521 130.79002434 -75.87890625 129.5390625 C-67.10659895 128.31995031 -58.16721631 125.30069914 -52.53515625 118.13671875 C-49.05411481 112.61750232 -48.11049261 107.14471183 -47.359375 100.72265625 C-47 98 -47 98 -46 96 C-22.9 96 0.2 96 24 96 C24 115.21623506 20.27282045 132.74702447 8 148 C7.46761719 148.69480469 6.93523437 149.38960937 6.38671875 150.10546875 C-10.06964762 170.41081818 -38.93140098 178.71997002 -63.84750366 181.78312683 C-67.21251259 182.1221658 -70.574395 182.18136983 -73.953125 182.203125 C-74.68703964 182.21013931 -75.42095428 182.21715363 -76.17710876 182.22438049 C-78.53480229 182.24179325 -80.89224452 182.24823335 -83.25 182.25 C-84.05579498 182.25067474 -84.86158997 182.25134949 -85.69180298 182.25204468 C-98.00708814 182.23565717 -109.95842333 181.82089968 -122 179 C-122.72590332 178.83371094 -123.45180664 178.66742188 -124.19970703 178.49609375 C-139.69697046 174.79893349 -153.59602811 168.03000598 -166 158 C-167.16595703 157.09701172 -167.16595703 157.09701172 -168.35546875 156.17578125 C-187.84163077 140.17767577 -195.15403071 114.78570577 -197.75683594 90.69042969 C-200.26156757 62.97743509 -195.44875861 33.10930905 -178.0625 10.6875 C-176.72612091 9.10975967 -175.37267658 7.54626408 -174 6 C-173.41992188 5.32582031 -172.83984375 4.65164062 -172.2421875 3.95703125 C-132.82265704 -38.79012191 -42.14476061 -36.63647883 0 0 Z " fill="#ffffff" transform="translate(419,174)"/>
<path d="M0 0 C1.19294174 -0.00990463 2.38588348 -0.01980927 3.61497498 -0.03001404 C5.55782883 -0.02326157 5.55782883 -0.02326157 7.53993225 -0.01637268 C8.9284622 -0.02207978 10.31698746 -0.02904536 11.70550537 -0.03717041 C15.46589867 -0.05507966 19.22605833 -0.0539377 22.98648143 -0.04822803 C26.13007993 -0.04513289 29.27363376 -0.05123223 32.4172259 -0.05726677 C39.83544462 -0.07130307 47.25354815 -0.06975822 54.67176819 -0.05836487 C62.31539547 -0.04688447 69.95867185 -0.06095983 77.6022529 -0.08776134 C84.17400386 -0.10993868 90.74564484 -0.11655116 97.31743056 -0.11068493 C101.23842846 -0.10731899 105.15920146 -0.10970607 109.08016777 -0.12693596 C112.76819456 -0.14243565 116.45570267 -0.13841667 120.14370918 -0.11963081 C122.13545164 -0.11420501 124.12721755 -0.12843603 126.11891174 -0.14332581 C132.88938846 -0.08764431 137.5694273 0.06155798 142.93470764 4.38768005 C145.9915093 8.13680027 146.31281297 11.07748442 146.32289124 15.84275818 C146.33234772 17.12759094 146.3418042 18.41242371 146.35154724 19.7361908 C146.34617721 21.13044037 146.34002418 22.52468711 146.33314514 23.91893005 C146.33516762 25.35712329 146.33808052 26.79531552 146.34184265 28.23350525 C146.34625784 31.24284155 146.33986121 34.25191011 146.32582092 37.26121521 C146.30872916 41.11144067 146.31857471 44.96103869 146.33653831 48.81124115 C146.34739814 51.77959387 146.34391981 54.74779874 146.33615494 57.71615601 C146.33415899 59.13547846 146.33659089 60.55481451 146.3435936 61.97412109 C146.35124339 63.96027863 146.33750924 65.94648346 146.32289124 67.93260193 C146.32050446 69.06113586 146.31811768 70.1896698 146.31565857 71.35240173 C145.73097691 76.01093237 143.87481844 78.54158033 140.43470764 81.63768005 C136.64260623 84.29215104 133.81382247 84.51498014 129.29937744 84.52812195 C128.12594284 84.53383209 126.95250824 84.53954224 125.74351501 84.54542542 C124.45462372 84.54654327 123.16573242 84.54766113 121.83778381 84.54881287 C120.46778225 84.5534418 119.09778198 84.55846657 117.7277832 84.56385803 C114.00453672 84.5769771 110.28130827 84.58342607 106.55804229 84.58786869 C104.23143442 84.59080032 101.90483148 84.59490531 99.57822609 84.59937286 C92.29747325 84.61304673 85.01673166 84.62271383 77.73596686 84.62657475 C69.33392081 84.63105486 60.93203749 84.64860093 52.53004092 84.67757535 C46.033971 84.69919881 39.53794685 84.70927939 33.04184133 84.71061587 C29.16277105 84.71166346 25.28385376 84.71756133 21.4048214 84.73543549 C17.75469155 84.75192766 14.10482952 84.75406625 10.45467567 84.74529648 C8.48059262 84.74416035 6.50651841 84.75786902 4.53248596 84.77204895 C2.75964485 84.76369522 2.75964485 84.76369522 0.95098877 84.75517273 C-0.07199216 84.75663929 -1.09497309 84.75810585 -2.14895344 84.75961685 C-7.56924789 84.06833679 -11.57675194 81.52224647 -15.06529236 77.38768005 C-16.16061623 74.10170844 -16.2121476 71.63588615 -16.24229431 68.17552185 C-16.25512955 66.89376572 -16.26796478 65.61200958 -16.28118896 64.29141235 C-16.28935681 62.88991178 -16.29680045 61.48840682 -16.30357361 60.0868988 C-16.30764914 59.38002237 -16.31172466 58.67314594 -16.31592369 57.94484901 C-16.33676638 54.20322082 -16.35107575 50.4616291 -16.36045837 46.71995544 C-16.37151825 42.86300129 -16.40591758 39.00662479 -16.44563007 35.14987469 C-16.47182241 32.17722529 -16.48015248 29.20471302 -16.48373985 26.23195839 C-16.48859923 24.81063244 -16.50019486 23.38931236 -16.51877785 21.96809959 C-16.54321982 19.97488263 -16.53977952 17.98138356 -16.53526306 15.98802185 C-16.54406242 14.28950325 -16.54406242 14.28950325 -16.55303955 12.55667114 C-15.93523776 8.54268931 -14.68068864 6.4818077 -12.06529236 3.38768005 C-7.90378802 0.90777879 -4.82264916 0.01134929 0 0 Z " fill="#037CFE" transform="translate(39.06529235839844,205.61231994628906)"/>
<path d="M0 0 C1.26472819 1.00252845 2.51539019 2.02310627 3.75 3.0625 C4.33265625 3.54976563 4.9153125 4.03703125 5.515625 4.5390625 C16.56077112 14.63890332 23.30174615 29.50826593 24.15625 44.36328125 C24.66801228 61.56918746 20.9321563 77.29493291 9.3125 90.5 C7.81194177 92.04084167 6.2922503 93.56338957 4.75 95.0625 C4.13640625 95.69671875 3.5228125 96.3309375 2.890625 96.984375 C-8.80121515 108.27649412 -24.92385119 112.62427694 -40.80517578 112.48022461 C-57.90308837 111.86807712 -72.501132 104.75856544 -84.2565918 92.63354492 C-88.38062481 88.16191383 -91.56168748 83.50185232 -94.25 78.0625 C-94.63671875 77.29035156 -95.0234375 76.51820313 -95.421875 75.72265625 C-102.25193811 61.24589204 -102.68841935 43.19969091 -97.49609375 28.08984375 C-90.64373924 11.44227401 -78.76673533 -0.83479754 -62.515625 -8.61328125 C-40.97122047 -17.34958883 -18.50986408 -13.24656303 0 0 Z " fill="#037CFE" transform="translate(2221.25,301.9375)"/>
<path d="M0 0 C24.75 0 49.5 0 75 0 C75 16.83 75 33.66 75 51 C50.25 51 25.5 51 0 51 C0 34.17 0 17.34 0 0 Z " fill="#ffffff" transform="translate(1617,79)"/>
<path d="M0 0 C0.66 0.33 1.32 0.66 2 1 C-0.31 3.31 -2.62 5.62 -5 8 C-5 5 -5 5 -2.5 2.3125 C-1.675 1.549375 -0.85 0.78625 0 0 Z " fill="#4799F1" transform="translate(30,207)"/>
</svg>
